<?xml version="1.0" encoding="utf-8"?>
<!-- Generator: Adobe Illustrator 25.0.0, SVG Export Plug-In . SVG Version: 6.00 Build 0)  -->
<svg version="1.1" id="Capa_1" xmlns="http://www.w3.org/2000/svg" xmlns:xlink="http://www.w3.org/1999/xlink" x="0px" y="0px"
	 viewBox="0 0 1200 1200" enable-background="new 0 0 1200 1200" xml:space="preserve">
<path fill="#1D1D1B" d="M50,679.4c4.122-12.777,28.631-29.305,31.47-41.342c2.583-10.953-3.003-11.007,7.966-20.568
	c7.424-6.471,20.073-7.275,19.885-16.789c7.976-5.404-2.887-13.874-2.408-22.025c4.244,1.1,10.122,0.776,13.947,4.281
	c-1.511-2.534-0.485-7.192-1.363-9.945c8.573-5.414,20.202-6.027,26.735-12.734c7.037-7.225,3.188-15.67,5.108-22.655
	c3.465-12.604,13.473-30.942,20.451-42.801c2.57,5.221,3.519,11.922,6.417,17.331c-0.093,0.312-0.184,0.617-0.272,0.905
	c-0.629,2.049-1.204,4.115-1.723,6.195c-0.52,2.083-0.915,4.195-1.233,6.319c-0.194,1.298-0.201,2.595-0.355,3.895
	c-0.167,1.413,0.079,2.715,0.341,4.102c0.544,2.878,5.048,3.423,6.337,0.828c1.992-4.008,2.725-8.597,3.76-12.941
	c0.497-2.085,1.05-4.157,1.658-6.213c0.601-2.033,1.339-4.091,1.066-6.141c16.17-21.711,35.678-44.34,58.335-58.246
	c1.124-11.436,6.933-23.888,9.028-35.44c8.853-1.973,18.21-3.396,27.087-5.286c-0.426-7.261,8.338-9.958,10.295-16.848
	c1.758-6.187-1.745-12.945-0.022-19.238c3.404-12.428,20.642-33.058,33.538-43.236c-0.115,12.951-7.389,24.906-3.699,37.924
	c27.894-3.665,46.858-8.729,61.126-26.695c6.575-8.278,11.856-16.509,16.844-23.542c6.995-9.862,17.94-18.912,25.833-28.638
	c0.114,4.903,1.139,10.635,0.083,15.54c7.551-8.779,18.736-15.199,26.656-22.792c7.556-7.244,8.719-13.292,20.974-18.608
	c19.045-8.261,36.405-5.873,49.636-21.867c3.767-4.554,4.089-16.128,8.58-18.929c10.345-6.452,13.569,2.271,24.025-0.313
	c22.627-5.592,33.837-18.712,49.564-29.724c16.957-11.874,46.955-26.434,68.789-35.71c-1.342,1.59-5.2,10.069-6.159,9.283
	c-8.094,5.371-46.265,31.52-22.516,29.26c-10.065,5.578-22.391,8.637-32.292,14.074c-6.555,3.599-9.612,8.404-17.008,11.569
	c4.389,1.824,11.245,2.356,16.595,1.698c-12.191,3.926-19.006,14.686-30.448,18.524c-14.838,4.978-27.605,1.619-32.06,13.314
	c-1.308,3.435,4.894,7.376,3.879,9.34c-2.654,5.128-15.444,8.237-21.651,10.764c-11.167,4.545-34.094,9.271-38.085,18.169
	c1.219,0.23,3.432,0.591,4.961,0.923c-6.54,3.932-15.257,6.232-17.879,11.351c4.244,0.019,10.659,0.605,15.802-0.601
	c-1.427,1.323-2.135,4.407-4.756,6.204c3.972,2.286,7.105,4.904,9.503,8.022c-30.784,8.441-58.476,24.706-88.323,35.681
	c6.513,10.986,22.202,15.754,1.771,27.195c-14.981,8.389-27.641,6.172-43.625,7.199c-26.629,1.711-9.573,6.397-26.317,17.57
	c-5.757,3.841-15.063,3.767-21.184,8.618c-3.204,2.539-4.687,8.784-6.17,11.323c15.895-1.989,36.457-8.172,51.519-6.153
	c-3.812,5.273-16.984,5.364-23.704,10.223c1.476,1.387,1.194,4.285,3.686,5.812c-7.98,5.017-17.484,5.888-25.681,9.791
	c-7.006,3.336-11.969,8.775-20.232,12.254c-5.065,2.132-14.636,3.015-19.108,5.508c-5.571,3.105-4.928,7.179-9.834,11.087
	c-13.257,10.56-47.557,23.36-46.904,38.55c7.976-1.369,16.511-1.117,17.459,4.786c10.443-1.418,21.087-3.289,31.559-5.073
	c-19.654,9.329-38.655,20.445-51.733,32.675c-7.376,6.897-12.491,11.338-23.58,14.722c-11.415,3.483-20.01,3.182-29.238,8.866
	c3.091,12.158-17.787,20.152-29.096,25.435c-2.443,10.382-1.749,16.399-14.714,23.526c-4.277,2.351-13.133,2.708-16.179,6.444
	c-2.769,3.396,1.837,8.862-1.649,13.548c-8.421,11.317-16.454,11.975-29.806,16.88C70.256,659.856,55.946,672.83,50,679.4z
	 M674.461,157.451c0.142-0.06,0.292-0.126,0.433-0.186C674.83,157.104,674.675,157.199,674.461,157.451z M657.74,812.411
	c0.204-0.194,0.431-0.445,0.641-0.655C657.966,812.168,657.74,812.411,657.74,812.411z M496.763,1044.244
	c0.051-0.094,0.108-0.194,0.159-0.289C496.685,1044.08,496.6,1044.18,496.763,1044.244z M712.254,845.212
	c0.112-0.01,0.255-0.053,0.434-0.135C712.76,845.015,712.685,845.006,712.254,845.212z M712.254,845.212
	c-0.026,0.002-0.082,0.033-0.098,0.027c0.011,0.004,0.026,0.001,0.038,0.003c0.008-0.004,0.015-0.009,0.023-0.013
	C712.232,845.222,712.239,845.219,712.254,845.212z M958.896,654.831c13.206-1.546,21.034-0.459,29.489-11.842
	c2.789-3.755,2.651-11.838,7.344-14.402c4.267-2.33,11.756,2.255,17.71-0.655c14.38-7.027,14.816-14.442,20.43-26.571
	c4.628-9.998,21.061-22.674,29.574-27.919c-17.144,3.21-37.472,25.142-53.328,27.154c-14.428,1.83-15.021-3.236-26.706,6.315
	c-7.908,6.464-7.857,17.869-20.356,17.245c-6.378,6.943-18.482-3.216-29.109-3.085c1.888,3.82,2.056,9.043,6.974,12.625
	c-3.439-1.467-9.403-0.753-13.073-1.645c-1.777,2.127-3.012,4.494-4.07,6.915c0.577,1.186,0.616,2.61-0.023,3.857
	c-1.717,3.346-3.59,6.486-5.939,9.428c-2.175,2.724-4.519,5.313-7.014,7.746c-2.701,2.634-5.615,4.847-8.696,7.009
	c-3.025,2.123-6.014,4.198-9.653,5.067c-3.58,0.855-6.022-3.402-3.542-6.084c1.339-1.448,2.755-2.62,4.372-3.76
	c0.649-0.457,1.291-0.924,1.927-1.4c-0.021,0.016,1.101-0.847,0.59-0.447c0.31-0.243,0.621-0.487,0.925-0.737
	c0.416-0.343,0.817-0.715,1.228-1.068c-4.349-0.131-8.649-0.521-12.48,0.09c-15.728,2.507-37.888,10.509-52.006,16.078
	c9.179,3.159,21.359,3.998,29.025,9.623c-26.028,12.531-56.625,28.81-75.46,51.385c-13.724,0.361-28.142,4.624-41.793,5.89
	c-0.581,3.007-1.039,6.093-1.482,9.187c0.101,3.408-0.347,6.799-1.507,9.929c-0.16,0.955-0.305,1.92-0.485,2.862
	c-0.279-0.023-0.535-0.017-0.801-0.024c-1.185,2.186-2.747,4.19-4.765,5.892c-3.429,2.893-7.255,5.34-10.023,8.946
	c-1.371,1.786-2.526,3.837-3.43,5.897c-0.967,2.202-1.384,4.365-2.93,6.276c-1.7,2.102-5.553,0.92-6.084-1.606
	c-0.949-4.509,2.002-9.902,4.36-13.629c0.9-1.421,1.896-2.739,2.941-4.011c-6.689,0.433-14.229-2.058-20.838-1.016
	c-13.974,2.203-31.502,31.119-41.812,41.413c3.875-3.858,24.555-22.9,37.121-3.369c-1.456,22.189-4.222,22.743-23.29,32.83
	c-8.786,4.648-17.568,8.25-24.996,11.693c-10.417,4.828-19.501,12.743-29.533,18.196c5.43,0.405,11.849,1.595,17.182,1.125
	c-9.077,5.243-15.197,13.422-22.833,18.948c-7.285,5.271-13.75,5.728-18.487,14.651c-7.361,13.866-3.588,27.21-19.541,35.768
	c-4.542,2.437-16.734,1.706-19.335,4.815c-5.992,7.165,3.409,10.305,1.434,17.845c-4.276,16.317-17.14,23.3-27.372,33.701
	c-11.033,11.215-23.83,31.4-31.807,45.996c1.501-0.782,9.706-2.591,8.874-3.372c4.9-5.215,29.159-30.078,28.031-12.954
	c5.103-6.712,7.568-15.427,12.565-22.136c3.308-4.441,8.043-6.176,10.884-11.33c2.1,3.462,2.979,8.63,2.56,12.534
	c3.415-8.612,14.078-12.481,17.464-20.656c4.391-10.6,0.17-20.606,12.124-22.76c3.511-0.633,7.937,4.508,9.931,3.951
	c5.208-1.455,7.836-10.89,10.169-15.38c4.197-8.078,7.881-25.267,17.166-27.49c0.318,0.966,0.83,2.715,1.269,3.933
	c3.831-4.673,5.793-11.227,11.15-12.773c0.265,3.31,1.239,8.372,0.214,12.255c1.34-0.975,4.599-1.205,6.391-3.066
	c2.643,3.345,5.577,6.084,8.995,8.318c6.438-23.273,25.311-43.094,34.266-66.457c12.61,6.184,18.536,19.459,30.295,4.014
	c7.198-9.455,6.247-18.391,5.827-28.613c-1.169,0.289-2.345,0.554-3.521,0.814c-2.831,0.626-5.763,1.215-8.517,2.124
	c-0.075,0.025-0.228,0.099-0.373,0.165c-0.081,0.07-0.335,0.195-0.494,0.165c-0.556,0.271-1.084,0.584-1.605,0.917
	c-0.519,0.332-1.081,0.754-1.636,1.02c-0.045,0.041-0.046,0.048-0.13,0.119c-0.302,0.273-0.622,0.525-0.96,0.755
	c-0.341,0.246-0.318,0.227,0.069-0.058c-1.232,1-2.616,1.389-4.128,0.781c-1.229-0.494-2.501-2.012-2.323-3.453
	c0.506-4.101,2.715-6.996,6.141-9.213c2.735-1.77,5.782-2.801,8.94-3.501c2.89-0.64,5.816-1.158,8.649-2.028
	c1.269-13.939,7.494-3.262,18.125-14.929c4.033-4.426,3.296-12.093,8.489-16.787c2.718-2.457,9.883-3.223,12.741-4.262
	c-1.218,13.048-7.104,29.539-4.116,42.232c5.813-2.648,5.28-13.589,10.515-18.749c1.672,1.356,4.989,1.389,6.858,3.619
	c5.383-6.197,5.916-14.09,10.008-20.636c3.497-5.595,9.578-9.31,13.186-16.005c2.212-4.104,2.659-12.131,5.326-15.728
	c3.322-4.481,8.211-3.626,12.56-7.506c11.753-10.485,24.867-39.14,43.519-37.504c-1.136,6.828-0.315,14.244,6.904,15.551
	c-1.154,8.988-2.912,18.1-4.631,27.051c10.367-16.231,22.918-31.943,37.313-42.484c8.118-5.945,13.389-10.122,17.008-19.73
	c0.865-2.296,1.474-4.469,1.989-6.556c-3.307,1.953-6.434,4.191-9.778,6.091c-3.812,2.166-7.776,3.981-11.833,5.639
	c-4.249,1.736-8.165,3.068-12.813,2.413c-3.207-0.452-3.974-5.073-1.866-7.066c3.508-3.316,8.18-4.588,12.451-6.614
	c3.968-1.882,7.873-3.947,11.626-6.229c3.865-2.35,7.525-5.17,11.85-6.654c1.304-0.448,2.732-0.716,4.161-0.816
	c0.88-1.887,2.015-3.753,3.586-5.628C943.988,682.872,952.872,664.712,958.896,654.831z M657.102,360.554
	c-5.696,3.503-16.848,12.31-23.469,12.617c-22.457,1.04,15.324-34.278,15.668-42.078c-5.743-0.941-22.492,9.886-28.204,13.3
	c-10.36,6.193-24.557,20.891-27.063,32.169c-3.409,15.344-6.729,11.275-16.251,21.585c-17.438,18.882-29.858,48.873-52.523,63.088
	c-10.632,6.668-31.029,23.663-47.483,30.026c-1.649,1.637-3.299,3.274-4.948,4.911c-4.404,4.371-8.845,8.691-13.38,12.927
	c-4.294,4.012-8.451,9.013-13.53,12.024c-3.284,1.947-7.273-1.963-5.264-5.264c3.149-5.174,8.338-9.401,12.511-13.754
	c3.831-3.997,7.739-7.908,11.676-11.798c5.198-14.828,21.682-26.525,23.485-43.419c-19.131,18.074-39.835,34.757-58.552,53.18
	c-11.503,11.322-23.247,14.805-35.107,23.986c-11.45,8.864-8.413,12.408-12.177,23.994c-1.541,4.743-6.265,13.688-6.808,17.595
	c-0.922,6.633,5.064,17.738,4.809,19.665c-1.071,8.087-23.199,31.621-28.184,30.13c-3.3,10.06-17.52,40.155-28.019,45.535
	c-16.229,8.317-21.762-11.83-32.56-18.915c-9.447,18.079-15.297,38.518-19.43,58.093c-2.671,12.651,0.095,21.466-13.539,24.665
	c-9.846,2.311-20.159-5.423-29.845-4.41c-1.605,14.804-13.195,14.794-24.27,11.281c-12.815-4.066-11.541-11.008-19.114,4.842
	c-15.157,31.721-19.677,68.617-20.566,104.096c-0.978-10.309-6.486-29.443-11.002-29.515c-5.361-0.085-11.602,20.008-14.968,26.016
	c-4.256,7.597-2.088,11.794-3.043,19.641c-0.907,7.45-5.583,8.334-6.965,15.575c-1.457,7.628-0.492,13.367-4.427,20.541
	c-3.501,6.383-8.052,12.29-11.805,18.41c-4.48,7.307-7.481,15.018-11.646,22.488c-3.722,6.674-9.769,12.096-11.62,19.913
	c4.71-9.391,13.766-16.453,19.449-25.472c7.083-11.241,16.101-21.736,25.389-31.668c5.666-6.059,12.757-10.903,17.933-16.255
	c2.781-2.876,3.887-5.678,6.46-8.777c5.226-6.293,5.896-4.104,11.295-4.732c7.911-0.922,21.172-1.045,27.025-6.022
	c-2.71-1.581-9.564-3.192-11.117-6.065c-3.495-6.468,0.884-4.446,3.635-8.055c1.507-1.977,3.724-1.326,4.709-4.492
	c0.681-2.188-3.127-3.126-2.707-4.515c1.511-4.998,4.661-3.161,8.575-6.56c12.134-10.539-4.198-31.911,4.293-44.479
	c13.37-19.788,30.49,4.216,44.909-4.57c3.315-2.02,2.719-8.227,5.572-9.921c5.023-2.982,9.686,2.971,13.27,2.655
	c7.987-0.703,11.414-9.854,17.44-15.144c4.544-3.989,9.038-4.112,13.673-7.624c3.96-3,6.538-8.916,9.175-13.775
	c4.077-7.512,8.372-21.668,18.104-22.964c4.556,8.598,3.786,23.868,4.028,33.747c4.195-14.968,16.978-27.333,24.888-40.232
	c3.671-5.986,6.494-12.804,11.1-18.474c5.504-6.777,9.362-10.932-1.302-12.593c18.273-11.075,43.178-14.22,61.6-25.425
	c-7.763-7.569-26.622-2.318-36.68-4.875c14.771-8.707,30.453-15.349,45.355-23.937c6.988-4.027,28.684-12.51,30.5-20.789
	c-7.926-1.368-16.964,0.602-25.964,2.225c-0.24,0.217-0.494,0.442-0.761,0.678c0.237-0.216,0.493-0.451,0.736-0.673
	c-5.672,1.022-11.329,1.906-16.682,1.725c4.992-4.077,12.145-7.746,18.766-6.769c0.489,2.033-0.153,3.179-1.403,4.421
	c10.773-9.859,27.044-25.082,36.308-36.257c3.466-4.182,5.806-9.818,10.214-12.608c4.815-3.048,10.156-1.538,15.091-2.902
	c11.692-3.234,11.51-12.358,19.366-19.551c9.253-8.472,25.786-5.469,33.909-14.891c-14.523,1.115-29.428,3.536-43.983,5.701
	c-11.786,1.753-23.597,4.822-35.106,6.686c5.461-5.981,15.044-10.628,22.638-13.6c7.348-2.875,10.939-5.055,16.662-9.04
	c6.63-4.617,9.05-5.243,17.281-5.633c8.405-0.398,10.732-1.342,19.022-5.503c11.472-5.758,23.926-10.932,34.316-19.452
	c11.558-9.479,18.721-23.762,27.763-35.662c3.992-5.253,7.653-9.335,13.138-13.388c2.895-2.139,1.968-3.487,5.97-5.372
	c3.596-1.694,9.56-0.7,13.769-2.644c-0.818,10.287,12.059-0.229,17.73-1.766c6.08-1.648,12.462-1.075,18.12-2.008
	c0.412,7.237-4.42,12.655-4.611,19.453c4.505-0.984,40.204-18.345,36.532-26.401c-1.377-3.022-21.985-7.87-25.717-9.016
	c-4.776-1.467-12.108-1.653-15.555-4.404c4.524-6.898,21.16-8.211,28.837-11.968c4.679-2.29,9.173-4.5,13.884-6.612
	c12.819-5.746,38.301-10.021,47.243-21.096c-11.145-1.366-22.88-0.188-34.252-0.626c-4.306-0.166-5.993-3.712-10.78-3.333
	c14.183-6.784,29.412-10.152,43.71-16.624c11.203-5.072,18.567-10.728,31.229-10.703c-5.201-8.713-4.719-15.905-3.79-26.343
	c4.668-1.13,7.268-5.073,11.712-5.737c6.083-0.908,9.954,4.925,15.301,4.843c8.003-0.122,29.66-10.288,35.989-14.975
	c19.87-14.716,26.64-38.02,51.932-46.201c10.951-3.542,32.323-9.131,32.434-22.488c1.043,1.248,2.519,2.271,3.486,3.81
	c-1.346-3.143-0.554-12.88-3.672-14.892c-2.771-1.788-11.923-0.05-18.062,1.481c9.82-3.077,19.363-8.428,29.846-10.284
	c8.446-1.496,16.447-1.442,24.997-4.774c10.793-4.206,41.45-20.944,44.575-31.979c0.888-0.438,1.628-1.03,2.22-1.776
	c-32.247,11.962-64.581,24.631-96.762,35.702c-11.489,3.953-22.756,11.206-32.288,18.123c-11.035,8.007-10.806,7.892-22.405,3.985
	c-6.411,16.71-22.972,30.111-39.33,35.397c-15.637,5.053-26.641,20.184-44.1,17.804c-9.826-1.34-5.204-5.063-11.944,3.689
	c-4.219,5.48-7.901,10.459-12.324,15.765c-6.43,7.714-16.794,28.695-30.135,23.674c-6.17,2.685-11.405,6.862-13.118,12.921
	c-3.531-3.009-5.433-7.894-8.1-11.592c-7.964,8.871-3.037,22.682-16.968,27.43c0.48-0.895,1.07-1.755,1.434-2.804
	C680.996,343.084,669.383,353.003,657.102,360.554z M440.094,604.91c0.233-0.211,0.453-0.416,0.656-0.618
	c-0.23,0.211-0.456,0.418-0.681,0.623C440.078,604.913,440.086,604.911,440.094,604.91z M1008.62,371.832
	c-20.445,9.089-40.942,20.199-61.445,27.846c-20.033,7.472-37.4,17.679-56.967,23.638c-17.397,5.297-30.573,4.561-47.366,6.675
	c-13.053,1.643-52.488,14.744-59.171,26.146c12.895,1.959,25.185-4.539,38.35-2.911c-4.594,1.518-8.851,3.275-14.626,3.03
	c0.642,8.566,1.829,19.08-3.696,27.232c-2.93,4.323-7.225,7.153-12.122,9.297c-3.125,4.608-7.181,8.575-12.039,11.597
	c-2.262,1.407-4.911,2.062-7.076,3.603c-1.969,1.402-2.403,3.067-2.872,5.394c-0.985,4.887-1.439,9.772-5.272,13.415
	c-3.148,2.993-7.457-1.478-4.708-4.708c1.375-1.617,1.628-3.87,1.988-5.884c0.415-2.326,0.653-4.703,1.315-6.978
	c0.638-2.192,1.687-4.602,3.134-6.386c0.974-1.201,2.284-2.182,3.65-3.063c-2.104,0.695-4.147,1.447-6.066,2.322
	c-6.448,2.941-22.081,7.784-28,12.912c-4.42,3.828-5.534,15.675-8.996,20.406c-3.891,5.317,0.278,4.944-5.455,9.198
	c-5.886,4.368-17.875,1.833-22.644,7.154c-4.613,5.147-1.374,13.164-4.621,18.714c-11.429,19.539-49.561,22.458-58.221,41.85
	c3.033-6.953,8.673-19.516,10.964-27.028c-17.478,9.252-37.417,22.606-46.044,37.721c-7.224,12.657-16.62,22.815-23.717,34.61
	c-4.366,7.255-1.864,12.88-4.521,19.992c-3.35,8.967-11.294,10.633-19.005,14.608c-3.601,1.856-8.501,5.142-13.413,7.057
	c-0.187,0.314-0.359,0.642-0.549,0.953c-3.274,5.364-7.202,11.144-12.644,14.513c-2.635,1.631-6.56-1.112-5.449-4.189
	c1.358-3.762,3.435-7.229,5.544-10.661c-4.224-0.979-8.675-2.337-13.577-1.701c-1.572,6.555-8.489,14.065-11.473,21.054
	c-2.605,6.101-3.699,8.631-8.277,14.384c-7.601,9.551-16.431,21.957-27.674,30.078c-0.163,1.77-0.486,3.499-1.099,5.223
	c-0.899,2.528-2.045,4.995-3.497,7.254c-1.45,2.256-3.154,4.386-5.099,6.236c-2.09,1.987-5.443,5.146-8.592,4.098
	c-1.969-0.656-2.696-2.329-2.422-4.265c0.345-2.439,3.66-4.202,5.302-5.781c0.804-0.773,1.559-1.593,2.279-2.444
	c0.18-0.212,0.356-0.428,0.533-0.643c0.023-0.029,0.031-0.037,0.051-0.061c0.01-0.014,0.01-0.016,0.023-0.034
	c0.318-0.459,0.653-0.904,0.962-1.37c0.551-0.831,1.039-1.702,1.507-2.583c-0.69,0.281-1.375,0.573-2.081,0.815
	c2.608-14.922,9.38-30.468,9.534-46.162c-9.079,4.148-12.494,15.394-17.258,22.818c-3.009,4.689-9.996,9.476-12.172,12.966
	c-4.756,7.627-6.713,16.807-10.434,24.324c-7.106,14.358-25.974,43.228-42.773,49.439c-2.068-7.017-3.818-14.569-8.416-21.052
	c-5.034,3.906-6.063,11.93-8.477,17.964c-1.36,3.398-2.735,10.586-4.853,13.28c-2.334,2.97-5.818,0.931-7.71,3.131
	c-5.156,5.994-11.267,14.135-14.334,21.027c-3.855,8.662-1.436,18.613-4.708,26.784c-3.143,7.849-11.029,16.288-16.069,23.766
	c-5.499,8.16-17.054,19.138-24.564,29.797c7.716-6.645,17.936-11.787,25.9-15.151c15.72-6.639,25.251-10.337,34.737-24.986
	c7.28-11.243,14.027-19.684,25.066-28.403c14.363-11.346,28.676-13.37,44.355-20.629c1.835-0.85,24.627-13.778,24.737-14.626
	c0.875-6.698-26.026-2.529-32.505-2.886c14.826-13.356,29.607-21.483,48.039-30.055c15.23-7.082,19.784-16.402,31.553-25.988
	c8.788-7.158,24.225-12.848,21.935-25.594c10.981,0.22,8.493-15.195,12.589-21.989c10.696-0.361,19.46,0.086,29.639-2.723
	c12.797-3.532,40.626-8.028,49.854-14.812c-11.204-1.19-23.724,0.303-34.057-2.992c11.994-3.278,17.15-14.153,24.114-22.744
	c8.647-10.667,22.046-23.227,33.01-30.694c25.561-17.41,63.972-16.452,87.627-41.204c-3.733-0.906-7.548-1.567-11.37-2.053
	c-1.136,0.336-2.257,0.699-3.412,0.998c-4.473,1.159-8.922,2.413-13.342,3.76c-4.429,1.35-8.901,2.466-13.328,3.748
	c-4.598,1.332-8.952,3.361-13.598,4.532c-3.714,0.936-6.004-4.286-2.619-6.211c4.165-2.368,8.709-3.839,13.142-5.619
	c4.503-1.808,8.81-3.694,13.475-5.139c4.578-1.417,9.186-2.734,13.822-3.95c3.13-0.821,6.209-1.338,9.325-1.794
	c22.054-16.719,54.99-21.065,66.006-44.433c3.631-7.703-1.085-11.037,7.289-17.877c6.056-4.948,17.571-6.757,25.441-8.318
	c8.722-1.729,14.338-4.192,22.539,1.693c7.478,5.366,3.083,14.75,18.549,14.371c4.547-15.969-16.251-25.521-28.577-32.854
	c5.952-3.692,13.256-7.372,18.867-12.786c3.666-3.537,4.993-6.962,7.736-9.843c5.475-5.748,10.404-14.533,16.445-18.531
	c2.794-1.85,10.292-1.599,14.244-4.318c-0.2,7.363-1.611,14.872-1.962,22.229c6.521-6.737,40.619-40.507,20.103-39.512
	c0.254-0.28,0.549-0.528,0.813-0.801c-2.234,0.468-4.428,0.91-6.537,1.18c-2.942,0.375-5.602,0.695-8.563,0.686
	c-2.865-0.009-5.857,0.851-8.668,1.345c-4.087,0.718-9.303,0.904-12.41,3.857c-3.061,2.91-7.406-1.499-4.61-4.61
	c3.588-3.994,8.465-5.972,13.569-7.088c3.37-0.737,7.109-1.134,10.318-2.394c3.144-1.234,6.185-2.178,9.457-3.071
	c6.155-1.679,12.899-3.034,19.275-3.439c2.971-0.188,5.849-0.008,8.579,0.662c13.114-5.915,27.647-10.925,36.527-21.12
	c-6.682-0.2-13.071,1.334-19.419,3.094c27.073-9.44,47.054-25.8,72.323-37.537c20.699-9.614,44.48-14.474,66.243-22.712
	c-3.163-0.056-8.568-1.034-13.305-0.184c12.391-9.291,23.731-20.234,35.822-29.281c12.208-9.134,27.107-13.257,39.927-21.391
	c-0.687,1.499,11.63-6.759,9.701-6.049c1.501-0.393,2.867-0.979,4.098-1.757c-20.389,8.065-44.32,20.079-65.478,24.747
	c-6.248,1.378-36.854,4.335-24.205,16.339C1044.744,360.203,1025.322,364.407,1008.62,371.832z M280.679,964.109
	c0.655-1.135,2.953,2.322,3.781,1.184c-0.123-5.213,2.829-11.08,7.033-17.046C286.158,952.842,282.01,958.148,280.679,964.109z"/>
</svg>
